<svg width="128" height="128" viewBox="0 0 128 128" xmlns="http://www.w3.org/2000/svg">
  <!-- 배경 라운드 사각형 -->
  <defs>
    <linearGradient id="bg" x1="0" y1="0" x2="1" y2="1">
      <stop offset="0%" stop-color="#6366F1"/>
      <stop offset="100%" stop-color="#4F46E5"/>
    </linearGradient>
  </defs>
  <rect x="0" y="0" width="128" height="128" rx="28" fill="url(#bg)"/>

  <!-- 흰색 카드(클립보드) -->
  <rect x="30" y="26" width="68" height="80" rx="10" fill="#FFFFFF"/>

  <!-- 클립보드 상단 집게 -->
  <rect x="52" y="20" width="24" height="14" rx="5" fill="#C7D2FE"/>

  <!-- 체크박스 1 (완료) -->
  <rect x="40" y="46" width="14" height="14" rx="4" fill="#22C55E"/>
  <path d="M43 53 l3 3 l5 -6" fill="none" stroke="#FFFFFF" stroke-width="2.4" stroke-linecap="round" stroke-linejoin="round"/>
  <line x1="60" y1="53" x2="88" y2="53" stroke="#94A3B8" stroke-width="3" stroke-linecap="round"/>

  <!-- 체크박스 2 (완료) -->
  <rect x="40" y="68" width="14" height="14" rx="4" fill="#22C55E"/>
  <path d="M43 75 l3 3 l5 -6" fill="none" stroke="#FFFFFF" stroke-width="2.4" stroke-linecap="round" stroke-linejoin="round"/>
  <line x1="60" y1="75" x2="88" y2="75" stroke="#94A3B8" stroke-width="3" stroke-linecap="round"/>

  <!-- 체크박스 3 (미완료) -->
  <rect x="40" y="90" width="14" height="14" rx="4" fill="none" stroke="#CBD5E1" stroke-width="2.4"/>
  <line x1="60" y1="97" x2="82" y2="97" stroke="#CBD5E1" stroke-width="3" stroke-linecap="round"/>
</svg>
